<?xml version="1.0" encoding="UTF-8"?>
<svg xmlns="http://www.w3.org/2000/svg" xmlns:xlink="http://www.w3.org/1999/xlink" width="32px" height="25px" viewBox="0 0 32 25" version="1.1">
<g id="surface1">
<path style="fill:none;stroke-width:5;stroke-linecap:round;stroke-linejoin:round;stroke:rgb(100%,100%,100%);stroke-opacity:1;stroke-miterlimit:4;" d="M 23.781738 23.784375 L 23.781738 9.778125 C 23.781738 7.81875 24.316406 6.234375 25.385742 5.00625 C 26.455078 3.75 27.98584 3.121875 29.978027 3.121875 C 31.962891 3.121875 33.493652 3.75 34.570312 5.00625 C 35.668945 6.234375 36.218262 7.81875 36.218262 9.778125 L 36.218262 23.775 L 50.039062 23.775 C 52.053223 23.775 53.649902 24.328125 54.807129 25.434375 C 56.000977 26.503125 56.601562 28.021875 56.601562 29.98125 C 56.601562 31.96875 56.000977 33.50625 54.807129 34.6125 C 53.649902 35.71875 52.053223 36.2625 50.039062 36.2625 L 36.218262 36.2625 L 36.218262 50.221875 C 36.218262 52.209375 35.668945 53.8125 34.570312 55.040625 C 33.464355 56.259375 31.933594 56.878125 29.978027 56.878125 C 28.022461 56.878125 26.491699 56.259375 25.385742 55.040625 C 24.316406 53.8125 23.781738 52.209375 23.781738 50.221875 L 23.781738 36.2625 L 9.960938 36.2625 C 8.005371 36.2625 6.416016 35.671875 5.192871 34.471875 C 3.999023 33.253125 3.398438 31.753125 3.398438 29.98125 C 3.398438 28.021875 3.984375 26.503125 5.141602 25.434375 C 6.335449 24.328125 7.946777 23.775 9.960938 23.775 L 23.781738 23.775 Z M 23.781738 23.784375 " transform="matrix(0.533333,0,0,0.416667,0,0)"/>
<path style=" stroke:none;fill-rule:nonzero;fill:rgb(0%,0%,0%);fill-opacity:1;" d="M 12.683594 9.910156 L 12.683594 4.074219 C 12.683594 3.257812 12.96875 2.597656 13.539062 2.085938 C 14.109375 1.5625 14.925781 1.300781 15.988281 1.300781 C 17.046875 1.300781 17.863281 1.5625 18.4375 2.085938 C 19.023438 2.597656 19.316406 3.257812 19.316406 4.074219 L 19.316406 9.90625 L 26.6875 9.90625 C 27.761719 9.90625 28.613281 10.136719 29.230469 10.597656 C 29.867188 11.042969 30.1875 11.675781 30.1875 12.492188 C 30.1875 13.320312 29.867188 13.960938 29.230469 14.421875 C 28.613281 14.882812 27.761719 15.109375 26.6875 15.109375 L 19.316406 15.109375 L 19.316406 20.925781 C 19.316406 21.753906 19.023438 22.421875 18.4375 22.933594 C 17.847656 23.441406 17.03125 23.699219 15.988281 23.699219 C 14.945312 23.699219 14.128906 23.441406 13.539062 22.933594 C 12.96875 22.421875 12.683594 21.753906 12.683594 20.925781 L 12.683594 15.109375 L 5.3125 15.109375 C 4.269531 15.109375 3.421875 14.863281 2.769531 14.363281 C 2.132812 13.855469 1.8125 13.230469 1.8125 12.492188 C 1.8125 11.675781 2.125 11.042969 2.742188 10.597656 C 3.378906 10.136719 4.238281 9.90625 5.3125 9.90625 L 12.683594 9.90625 Z M 12.683594 9.910156 "/>
</g>
</svg>
